# xmcd
#
# Track frame offsets: 
#        182
#        13520
#        24842
#        35150
#        47245
#        57620
#        67425
#        77345
#        88867
#        101175
#        110865
#        121740
#        131625
#        144042
#        155102
#        166637
#        180857
#        191540
#        202915
#        217095
#
# Disc length: 3047 seconds
#
# Revision: 2
# Processed by: cddbd v1.5.2PL0 Copyright (c) Steve Scherf et al.
# Submitted via: ExactAudioCopyFreeDBPlugin 1.0
#
DISCID=1a0be514
DTITLE=Little Willie John - Fever
DYEAR=1900
DGENRE=R&B
TTITLE0=All Around The World (1955)
TTITLE1=Suffering With The Blues (1957)
TTITLE2=Need Your Love So Bad (1955)
TTITLE3=If I Thought You Needed Me (1957)
TTITLE4=Let's Rock While The Rockin's Good (1958)
TTITLE5=Are You Ever Coming Back (1955)
TTITLE6=Person To Person (1957)
TTITLE7=Drive Me Homer (1956)
TTITLE8=Fever (1956)
TTITLE9=Uh Oh Baby (1958)
TTITLE10=Like Boy, Like Girl (1961)
TTITLE11=Look What You've Done To Me (1957)
TTITLE12=Talk To Me, Talk To Me (1958)
TTITLE13=My Baby's In Love With Another Guy (1962)
TTITLE14=Bo-Da-Ley Didd-Ley (1961)
TTITLE15=Inside Information (1963)
TTITLE16=Rock Love (1961)
TTITLE17=Why Don't You Haul Off And Love Me (1958)
TTITLE18=You Hurt Me (1960)
TTITLE19=Leave My Kitten Alone (1959)
EXTD=
EXTT0=
EXTT1=
EXTT2=
EXTT3=
EXTT4=
EXTT5=
EXTT6=
EXTT7=
EXTT8=
EXTT9=
EXTT10=
EXTT11=
EXTT12=
EXTT13=
EXTT14=
EXTT15=
EXTT16=
EXTT17=
EXTT18=
EXTT19=
PLAYORDER=
